<mxfile host="app.diagrams.net" agent="Mozilla/5.0 (Windows NT 10.0; Win64; x64) AppleWebKit/537.36 (KHTML, like Gecko) Chrome/128.0.0.0 Safari/537.36" version="24.7.7">
  <diagram name="Page-1" id="ziG7X7EVe4cJfio2BCwE">
    <mxGraphModel dx="1914" dy="1008" grid="1" gridSize="10" guides="1" tooltips="1" connect="1" arrows="1" fold="1" page="1" pageScale="1" pageWidth="827" pageHeight="1169" math="0" shadow="0">
      <root>
        <mxCell id="0" />
        <mxCell id="1" parent="0" />
        <mxCell id="RAVvE-E1nA_ZB6HdVe7P-1" value="Khách hàng" style="shape=umlActor;verticalLabelPosition=bottom;verticalAlign=top;html=1;outlineConnect=0;" vertex="1" parent="1">
          <mxGeometry x="50" y="360" width="30" height="60" as="geometry" />
        </mxCell>
        <mxCell id="RAVvE-E1nA_ZB6HdVe7P-2" value="Chủ shop" style="shape=umlActor;verticalLabelPosition=bottom;verticalAlign=top;html=1;outlineConnect=0;" vertex="1" parent="1">
          <mxGeometry x="770" y="350" width="30" height="60" as="geometry" />
        </mxCell>
        <mxCell id="RAVvE-E1nA_ZB6HdVe7P-3" value="" style="whiteSpace=wrap;html=1;aspect=fixed;" vertex="1" parent="1">
          <mxGeometry x="120" y="160" width="620" height="620" as="geometry" />
        </mxCell>
        <mxCell id="RAVvE-E1nA_ZB6HdVe7P-4" value="Chưa có tài khoản" style="shape=umlActor;verticalLabelPosition=bottom;verticalAlign=top;html=1;outlineConnect=0;" vertex="1" parent="1">
          <mxGeometry x="50" y="190" width="30" height="60" as="geometry" />
        </mxCell>
        <mxCell id="RAVvE-E1nA_ZB6HdVe7P-5" value="Đã có tài khoản&lt;div&gt;&lt;br&gt;&lt;/div&gt;" style="shape=umlActor;verticalLabelPosition=bottom;verticalAlign=top;html=1;outlineConnect=0;" vertex="1" parent="1">
          <mxGeometry x="50" y="510" width="30" height="60" as="geometry" />
        </mxCell>
        <mxCell id="RAVvE-E1nA_ZB6HdVe7P-6" value="Shop bán laptop" style="text;html=1;align=center;verticalAlign=middle;resizable=0;points=[];autosize=1;strokeColor=none;fillColor=none;" vertex="1" parent="1">
          <mxGeometry x="320" y="170" width="110" height="30" as="geometry" />
        </mxCell>
        <mxCell id="RAVvE-E1nA_ZB6HdVe7P-7" value="Đăng kí tài khoản" style="ellipse;whiteSpace=wrap;html=1;" vertex="1" parent="1">
          <mxGeometry x="170" y="200" width="70" height="40" as="geometry" />
        </mxCell>
        <mxCell id="RAVvE-E1nA_ZB6HdVe7P-8" value="Xem thông tin sản phẩm" style="ellipse;whiteSpace=wrap;html=1;" vertex="1" parent="1">
          <mxGeometry x="170" y="270" width="110" height="50" as="geometry" />
        </mxCell>
        <mxCell id="RAVvE-E1nA_ZB6HdVe7P-9" value="Tìm kiếm sản phẩm" style="ellipse;whiteSpace=wrap;html=1;" vertex="1" parent="1">
          <mxGeometry x="170" y="340" width="80" height="50" as="geometry" />
        </mxCell>
        <mxCell id="RAVvE-E1nA_ZB6HdVe7P-10" value="" style="ellipse;whiteSpace=wrap;html=1;" vertex="1" parent="1">
          <mxGeometry x="170" y="410" width="70" height="40" as="geometry" />
        </mxCell>
        <mxCell id="RAVvE-E1nA_ZB6HdVe7P-11" value="" style="ellipse;whiteSpace=wrap;html=1;" vertex="1" parent="1">
          <mxGeometry x="170" y="490" width="70" height="40" as="geometry" />
        </mxCell>
      </root>
    </mxGraphModel>
  </diagram>
</mxfile>
